<svg width="400" height="250" viewBox="0 0 400 250" fill="none" xmlns="http://www.w3.org/2000/svg">
  <!-- Background -->
  <rect width="400" height="250" fill="#1a1a1a"/>
  
  <!-- Header -->
  <rect width="400" height="60" fill="#800020"/>
  <text x="20" y="35" fill="white" font-family="Arial, sans-serif" font-size="20" font-weight="bold">Blade & Fade Barbers</text>
  <text x="300" y="35" fill="white" font-family="Arial, sans-serif" font-size="14">Book Online</text>
  
  <!-- Navigation -->
  <rect y="60" width="400" height="40" fill="#2a2a2a"/>
  <text x="20" y="85" fill="white" font-family="Arial, sans-serif" font-size="14">Home</text>
  <text x="80" y="85" fill="white" font-family="Arial, sans-serif" font-size="14">Services</text>
  <text x="150" y="85" fill="white" font-family="Arial, sans-serif" font-size="14">Gallery</text>
  <text x="220" y="85" fill="white" font-family="Arial, sans-serif" font-size="14">Book</text>
  <text x="280" y="85" fill="white" font-family="Arial, sans-serif" font-size="14">Contact</text>
  
  <!-- Hero Section -->
  <rect y="100" width="400" height="100" fill="#f8f9fa"/>
  <text x="20" y="130" fill="#333" font-family="Arial, sans-serif" font-size="22" font-weight="bold">Premium Barber Services</text>
  <text x="20" y="155" fill="#666" font-family="Arial, sans-serif" font-size="14">Classic cuts • Modern styles • Professional service</text>
  <rect x="20" y="165" width="100" height="30" fill="#800020" rx="5"/>
  <text x="45" y="185" fill="white" font-family="Arial, sans-serif" font-size="12">Book Now</text>
  
  <!-- Barber Chair Icon -->
  <rect x="300" y="120" width="60" height="60" fill="#e9ecef" rx="5"/>
  <rect x="310" y="130" width="40" height="40" fill="#8B5B3F" rx="3"/>
  <circle cx="330" cy="150" r="8" fill="white"/>
  <rect x="325" y="140" width="10" height="20" fill="white"/>
  
  <!-- Services Preview -->
  <rect y="200" width="400" height="50" fill="#2a2a2a"/>
  <text x="20" y="220" fill="white" font-family="Arial, sans-serif" font-size="12">Haircuts • Beard Trim • Shaves • Styling</text>
  <text x="20" y="235" fill="#ccc" font-family="Arial, sans-serif" font-size="10">Walk-ins Welcome • Appointments Available</text>
</svg>
