<svg width="400" height="250" viewBox="0 0 400 250" fill="none" xmlns="http://www.w3.org/2000/svg">
  <!-- Background -->
  <rect width="400" height="250" fill="#f8f9fa"/>
  
  <!-- Header -->
  <rect width="400" height="60" fill="#8B5B3F"/>
  <text x="20" y="35" fill="white" font-family="Arial, sans-serif" font-size="20" font-weight="bold">Brew & Bite Cafe</text>
  <text x="300" y="35" fill="white" font-family="Arial, sans-serif" font-size="14">Order Online</text>
  
  <!-- Navigation -->
  <rect y="60" width="400" height="40" fill="#e9ecef"/>
  <text x="20" y="85" fill="#333" font-family="Arial, sans-serif" font-size="14">Home</text>
  <text x="80" y="85" fill="#333" font-family="Arial, sans-serif" font-size="14">Menu</text>
  <text x="130" y="85" fill="#333" font-family="Arial, sans-serif" font-size="14">About</text>
  <text x="190" y="85" fill="#333" font-family="Arial, sans-serif" font-size="14">Gallery</text>
  <text x="250" y="85" fill="#333" font-family="Arial, sans-serif" font-size="14">Contact</text>
  
  <!-- Hero Section -->
  <rect y="100" width="400" height="100" fill="white"/>
  <text x="20" y="130" fill="#333" font-family="Arial, sans-serif" font-size="22" font-weight="bold">Fresh Coffee & Delicious Food</text>
  <text x="20" y="155" fill="#666" font-family="Arial, sans-serif" font-size="14">Artisan coffee • Fresh pastries • Cozy atmosphere</text>
  <rect x="20" y="165" width="100" height="30" fill="#8B5B3F" rx="5"/>
  <text x="45" y="185" fill="white" font-family="Arial, sans-serif" font-size="12">View Menu</text>
  
  <!-- Coffee Cup Icon -->
  <rect x="300" y="120" width="50" height="60" fill="#e9ecef" rx="5"/>
  <rect x="310" y="130" width="30" height="40" fill="#8B5B3F" rx="3"/>
  <rect x="315" y="125" width="20" height="5" fill="#8B5B3F" rx="2"/>
  <circle cx="320" cy="140" r="3" fill="white"/>
  <circle cx="330" cy="140" r="3" fill="white"/>
  
  <!-- Menu Preview -->
  <rect y="200" width="400" height="50" fill="#f8f9fa"/>
  <text x="20" y="220" fill="#333" font-family="Arial, sans-serif" font-size="12">Espresso • Latte • Cappuccino • Pastries • Sandwiches</text>
  <text x="20" y="235" fill="#666" font-family="Arial, sans-serif" font-size="10">Open Daily 6AM-8PM • Free WiFi • Outdoor Seating</text>
</svg>
