<svg width="32" height="32" viewBox="0 0 32 32" fill="none" xmlns="http://www.w3.org/2000/svg">
  <!-- Background -->
  <rect width="32" height="32" rx="6" fill="#800020"/>
  
  <!-- Letter C -->
  <path d="M16 8C11.6 8 8 11.6 8 16C8 20.4 11.6 24 16 24C18.2 24 20.2 23.1 21.7 21.7L19.3 19.3C18.3 20.3 17.2 20.8 16 20.8C13.2 20.8 10.8 18.4 10.8 15.6C10.8 12.8 13.2 10.4 16 10.4C17.2 10.4 18.3 10.9 19.3 11.9L21.7 9.5C20.2 8.1 18.2 7.2 16 7.2V8Z" fill="white"/>
  
  <!-- Code symbol -->
  <path d="M6 10L8 8L6 6" stroke="white" stroke-width="1.5" stroke-linecap="round"/>
  <path d="M26 10L24 8L26 6" stroke="white" stroke-width="1.5" stroke-linecap="round"/>
</svg>
