<svg width="400" height="250" viewBox="0 0 400 250" fill="none" xmlns="http://www.w3.org/2000/svg">
  <!-- Background -->
  <rect width="400" height="250" fill="#f8f9fa"/>
  
  <!-- Header -->
  <rect width="400" height="60" fill="#800020"/>
  <text x="20" y="35" fill="white" font-family="Arial, sans-serif" font-size="20" font-weight="bold">NichePort Auto Repair</text>
  <text x="300" y="35" fill="white" font-family="Arial, sans-serif" font-size="14">(555) 123-4567</text>
  
  <!-- Navigation -->
  <rect y="60" width="400" height="40" fill="#e9ecef"/>
  <text x="20" y="85" fill="#333" font-family="Arial, sans-serif" font-size="14">Home</text>
  <text x="80" y="85" fill="#333" font-family="Arial, sans-serif" font-size="14">Services</text>
  <text x="150" y="85" fill="#333" font-family="Arial, sans-serif" font-size="14">Gallery</text>
  <text x="220" y="85" fill="#333" font-family="Arial, sans-serif" font-size="14">Quote</text>
  <text x="280" y="85" fill="#333" font-family="Arial, sans-serif" font-size="14">Contact</text>
  
  <!-- Hero Section -->
  <rect y="100" width="400" height="100" fill="white"/>
  <text x="20" y="130" fill="#333" font-family="Arial, sans-serif" font-size="22" font-weight="bold">Professional Auto Repair</text>
  <text x="20" y="155" fill="#666" font-family="Arial, sans-serif" font-size="14">Expert mechanics • Quality service • Fair prices</text>
  <rect x="20" y="165" width="120" height="30" fill="#800020" rx="5"/>
  <text x="50" y="185" fill="white" font-family="Arial, sans-serif" font-size="12">Get Free Quote</text>
  
  <!-- Car Icon -->
  <rect x="300" y="120" width="80" height="40" fill="#e9ecef" rx="5"/>
  <rect x="310" y="130" width="60" height="20" fill="#800020" rx="3"/>
  <circle cx="320" cy="150" r="8" fill="#333"/>
  <circle cx="360" cy="150" r="8" fill="#333"/>
  
  <!-- Services Preview -->
  <rect y="200" width="400" height="50" fill="#f8f9fa"/>
  <text x="20" y="220" fill="#333" font-family="Arial, sans-serif" font-size="12">Oil Change • Brake Service • Engine Repair • Transmission</text>
  <text x="20" y="235" fill="#666" font-family="Arial, sans-serif" font-size="10">Open Mon-Fri 8AM-6PM • Saturday 9AM-4PM</text>
</svg>
